<?xml version="1.0" encoding="utf-8"?>
<!-- Generator: Adobe Illustrator 17.0.0, SVG Export Plug-In . SVG Version: 6.00 Build 0)  -->
<!DOCTYPE svg PUBLIC "-//W3C//DTD SVG 1.1//EN" "http://www.w3.org/Graphics/SVG/1.1/DTD/svg11.dtd">
<svg version="1.1" id="Layer_1" xmlns="http://www.w3.org/2000/svg" xmlns:xlink="http://www.w3.org/1999/xlink" x="0px" y="0px"
	 width="53.984px" height="22px" viewBox="-17.984 0 53.984 22" enable-background="new -17.984 0 53.984 22" xml:space="preserve">
<path fill="#727272" d="M17.837,8.7l-8.413,8.413c-0.108,0.11-0.27,0.18-0.415,0.18c-0.146,0-0.31-0.07-0.417-0.18L0.18,8.7
	C0.072,8.59,0,8.43,0,8.285s0.072-0.307,0.18-0.416l0.903-0.904c0.108-0.11,0.253-0.18,0.415-0.18c0.144,0,0.307,0.07,0.415,0.18
	l7.095,7.095l7.095-7.094c0.108-0.11,0.27-0.18,0.415-0.18s0.307,0.07,0.415,0.18l0.903,0.902c0.108,0.108,0.18,0.27,0.18,0.414
	c0,0.145-0.07,0.307-0.18,0.416L17.837,8.7z"/>
</svg>
