<?xml version="1.0" encoding="utf-8"?>
<!-- Generator: Adobe Illustrator 17.0.0, SVG Export Plug-In . SVG Version: 6.00 Build 0)  -->
<!DOCTYPE svg PUBLIC "-//W3C//DTD SVG 1.1//EN" "http://www.w3.org/Graphics/SVG/1.1/DTD/svg11.dtd">
<svg version="1.1" id="Layer_1" xmlns="http://www.w3.org/2000/svg" xmlns:xlink="http://www.w3.org/1999/xlink" x="0px" y="0px"
	 width="40px" height="40px" viewBox="0 0 40 40" enable-background="new 0 0 40 40" xml:space="preserve">
<path fill="#E64C3B" d="M40,7.031v26c0,3.82-2.935,6.551-6.659,6.931H33.32C33.076,39.99,33.249,40,33,40H7c-4.08,0-7-3.333-7-6.97
	L0,8.063C0,3.551,2.952,0,7.031,0H33C37.08,0,40,2.957,40,7.031z"/>
<linearGradient id="SVGID_1_" gradientUnits="userSpaceOnUse" x1="5.454" y1="4.2004" x2="43.0952" y2="35.977">
	<stop  offset="0" style="stop-color:#231F20"/>
	<stop  offset="0.0896" style="stop-color:#231F20;stop-opacity:0.9104"/>
	<stop  offset="1" style="stop-color:#231F20;stop-opacity:0"/>
</linearGradient>
<path opacity="0.3" fill="url(#SVGID_1_)" fill-opacity="0.8" d="M40,17.031v15.684c0,3.776-2.897,6.908-6.573,7.284h-0.021H28
	L13,27h14V13h4V9L40,17.031z"/>
<rect x="13" y="13" fill="#FFFFFF" width="14" height="14"/>
<rect x="27" y="9" fill="#FFFFFF" width="4" height="4"/>
</svg>
