<?xml version="1.0" encoding="utf-8"?>
<!-- Generator: Adobe Illustrator 17.0.0, SVG Export Plug-In . SVG Version: 6.00 Build 0)  -->
<!DOCTYPE svg PUBLIC "-//W3C//DTD SVG 1.1//EN" "http://www.w3.org/Graphics/SVG/1.1/DTD/svg11.dtd">
<svg version="1.1" id="Layer_1" xmlns="http://www.w3.org/2000/svg" xmlns:xlink="http://www.w3.org/1999/xlink" x="0px" y="0px"
	 width="350px" height="230px" viewBox="0 0 350 230" enable-background="new 0 0 350 230" xml:space="preserve">
<rect fill="#EA593D" width="350" height="230"/>
<g enable-background="new    ">
	<path fill="#FFFFFF" d="M196.59,132.337l-4.342,4.312c-1.595,1.595-3.751,2.451-5.995,2.451c-2.275,0-4.431-0.886-6.025-2.511
		l-6.085-6.113c-1.595-1.595-2.451-3.751-2.451-5.996c0-2.333,0.945-4.548,2.599-6.173l-2.599-2.599
		c-1.624,1.654-3.81,2.599-6.143,2.599c-2.244,0-4.43-0.886-6.025-2.481l-6.143-6.143c-1.624-1.624-2.481-3.751-2.481-6.025
		c0-2.245,0.915-4.431,2.51-5.996l4.342-4.312c1.595-1.595,3.751-2.451,5.995-2.451c2.275,0,4.431,0.886,6.025,2.511l6.084,6.113
		c1.595,1.595,2.451,3.751,2.451,5.996c0,2.333-0.945,4.548-2.599,6.173l2.599,2.6c1.624-1.654,3.81-2.6,6.143-2.6
		c2.245,0,4.431,0.886,6.025,2.481l6.143,6.143c1.624,1.624,2.481,3.751,2.481,6.025
		C199.101,128.586,198.185,130.772,196.59,132.337z M171.84,103.512l-6.084-6.114c-0.532-0.532-1.27-0.827-2.008-0.827
		c-0.738,0-1.477,0.295-2.008,0.797l-4.342,4.312c-0.532,0.532-0.827,1.241-0.827,1.979c0,0.768,0.295,1.477,0.827,2.009
		l6.143,6.143c0.532,0.532,1.27,0.797,2.008,0.797c0.857,0,1.536-0.295,2.126-0.916c-0.975-0.974-2.126-1.801-2.126-3.307
		c0-1.566,1.27-2.836,2.835-2.836c1.506,0,2.333,1.152,3.308,2.126c0.62-0.591,0.974-1.27,0.974-2.156
		C172.667,104.781,172.372,104.043,171.84,103.512z M192.604,124.332l-6.143-6.143c-0.532-0.532-1.27-0.827-2.009-0.827
		c-0.857,0-1.536,0.325-2.126,0.946c0.975,0.974,2.126,1.801,2.126,3.307c0,1.566-1.27,2.836-2.835,2.836
		c-1.507,0-2.334-1.152-3.308-2.126c-0.62,0.591-0.974,1.27-0.974,2.156c0,0.738,0.295,1.476,0.827,2.008l6.084,6.114
		c0.532,0.532,1.27,0.797,2.009,0.797c0.738,0,1.476-0.266,2.008-0.768l4.342-4.312c0.532-0.532,0.827-1.241,0.827-1.979
		C193.43,125.573,193.135,124.864,192.604,124.332z"/>
</g>
</svg>
