<?xml version="1.0" encoding="utf-8"?>
<!-- Generator: Adobe Illustrator 17.0.0, SVG Export Plug-In . SVG Version: 6.00 Build 0)  -->
<!DOCTYPE svg PUBLIC "-//W3C//DTD SVG 1.1//EN" "http://www.w3.org/Graphics/SVG/1.1/DTD/svg11.dtd">
<svg version="1.1" id="Layer_1" xmlns="http://www.w3.org/2000/svg" xmlns:xlink="http://www.w3.org/1999/xlink" x="0px" y="0px"
	 width="350px" height="230px" viewBox="0 0 350 230" enable-background="new 0 0 350 230" xml:space="preserve">
<rect fill="#EA593D" width="350" height="230"/>
<g enable-background="new    ">
	<path fill="#FFFFFF" d="M173.16,120.52c0,8.107-6.613,14.72-14.72,14.72h-1.84c-1.006,0-1.84-0.834-1.84-1.84v-3.68
		c0-1.006,0.834-1.84,1.84-1.84h1.84c4.054,0,7.36-3.306,7.36-7.36v-0.92c0-1.524-1.236-2.76-2.76-2.76h-6.44
		c-3.047,0-5.52-2.473-5.52-5.519V100.28c0-3.047,2.473-5.52,5.52-5.52h11.04c3.047,0,5.52,2.473,5.52,5.52V120.52L173.16,120.52z
		 M198.919,120.52c0,8.107-6.613,14.72-14.72,14.72h-1.84c-1.006,0-1.84-0.834-1.84-1.84v-3.68c0-1.006,0.834-1.84,1.84-1.84h1.84
		c4.054,0,7.36-3.306,7.36-7.36v-0.92c0-1.524-1.236-2.76-2.76-2.76h-6.44c-3.047,0-5.52-2.473-5.52-5.519V100.28
		c0-3.047,2.473-5.52,5.52-5.52h11.04c3.048,0,5.52,2.473,5.52,5.52V120.52z"/>
</g>
</svg>
