<?xml version="1.0" encoding="utf-8"?>
<!-- Generator: Adobe Illustrator 17.0.0, SVG Export Plug-In . SVG Version: 6.00 Build 0)  -->
<!DOCTYPE svg PUBLIC "-//W3C//DTD SVG 1.1//EN" "http://www.w3.org/Graphics/SVG/1.1/DTD/svg11.dtd">
<svg version="1.1" id="Layer_1" xmlns="http://www.w3.org/2000/svg" xmlns:xlink="http://www.w3.org/1999/xlink" x="0px" y="0px"
	 width="350px" height="230px" viewBox="0 0 350 230" enable-background="new 0 0 350 230" xml:space="preserve">
<rect fill="#EA593D" width="350" height="230"/>
<g enable-background="new    ">
	<path fill="#FFFFFF" d="M185.464,101.048c0,0.954-0.79,1.744-1.744,1.744h-31.392c-0.954,0-1.744-0.79-1.744-1.744V97.56
		c0-0.954,0.79-1.744,1.744-1.744h31.392c0.954,0,1.744,0.79,1.744,1.744V101.048z M195.929,111.512c0,0.954-0.79,1.744-1.744,1.744
		h-41.857c-0.954,0-1.744-0.79-1.744-1.744v-3.488c0-0.954,0.79-1.744,1.744-1.744h41.857c0.954,0,1.744,0.79,1.744,1.744V111.512z
		 M188.952,121.975c0,0.954-0.79,1.744-1.744,1.744h-34.881c-0.954,0-1.744-0.79-1.744-1.744v-3.488c0-0.954,0.79-1.744,1.744-1.744
		h34.881c0.954,0,1.744,0.79,1.744,1.744V121.975z M199.417,132.44c0,0.954-0.79,1.744-1.744,1.744h-45.345
		c-0.954,0-1.744-0.79-1.744-1.744v-3.488c0-0.954,0.79-1.744,1.744-1.744h45.345c0.954,0,1.744,0.79,1.744,1.744V132.44z"/>
</g>
</svg>
