<?xml version="1.0" encoding="utf-8"?>
<!-- Generator: Adobe Illustrator 17.0.0, SVG Export Plug-In . SVG Version: 6.00 Build 0)  -->
<!DOCTYPE svg PUBLIC "-//W3C//DTD SVG 1.1//EN" "http://www.w3.org/Graphics/SVG/1.1/DTD/svg11.dtd">
<svg version="1.1" id="Layer_1" xmlns="http://www.w3.org/2000/svg" xmlns:xlink="http://www.w3.org/1999/xlink" x="0px" y="0px"
	 width="350px" height="230px" viewBox="0 0 350 230" enable-background="new 0 0 350 230" xml:space="preserve">
<rect fill="#EA593D" width="350" height="230"/>
<g enable-background="new    ">
	<path fill="#FFFFFF" d="M173.115,131.026c0,1.032-0.855,1.886-1.885,1.886c-0.501,0-0.972-0.207-1.326-0.56l-9.81-9.811h-7.719
		c-1.031,0-1.885-0.854-1.885-1.885v-11.313c0-1.031,0.854-1.885,1.885-1.885h7.719l9.81-9.811c0.353-0.353,0.825-0.56,1.326-0.56
		c1.031,0,1.885,0.855,1.885,1.886V131.026z M179.86,121.923c-0.236,0.118-0.501,0.148-0.736,0.148
		c-1.031,0-1.885-0.825-1.885-1.885c0-2.239,3.417-1.62,3.417-5.185c0-3.565-3.417-2.946-3.417-5.185
		c0-1.061,0.855-1.885,1.885-1.885c0.236,0,0.501,0.03,0.736,0.148c2.77,1.09,4.566,3.977,4.566,6.923
		C184.426,117.946,182.63,120.803,179.86,121.923z M182.836,128.875c-0.236,0.089-0.501,0.148-0.736,0.148
		c-1.061,0-1.915-0.855-1.915-1.885c0-0.825,0.471-1.385,1.149-1.739c0.795-0.412,1.532-0.766,2.238-1.296
		c2.917-2.121,4.625-5.509,4.625-9.103c0-3.594-1.708-6.982-4.625-9.103c-0.707-0.53-1.443-0.884-2.238-1.296
		c-0.678-0.354-1.149-0.914-1.149-1.739c0-1.031,0.855-1.885,1.885-1.885c0.265,0,0.53,0.059,0.766,0.148
		c5.539,2.327,9.133,7.895,9.133,13.875C191.968,120.98,188.375,126.548,182.836,128.875z M185.811,135.799
		c-0.236,0.088-0.501,0.147-0.766,0.147c-1.031,0-1.885-0.855-1.885-1.885c0-0.855,0.442-1.326,1.149-1.738
		c0.412-0.236,0.883-0.383,1.326-0.619c0.825-0.442,1.65-0.943,2.416-1.502c4.832-3.565,7.689-9.192,7.689-15.202
		s-2.857-11.637-7.689-15.202c-0.766-0.559-1.591-1.061-2.416-1.502c-0.442-0.236-0.914-0.383-1.326-0.619
		c-0.708-0.412-1.149-0.883-1.149-1.738c0-1.031,0.855-1.885,1.885-1.885c0.265,0,0.53,0.059,0.766,0.147
		c8.308,3.565,13.699,11.755,13.699,20.799S194.119,132.234,185.811,135.799z"/>
</g>
</svg>
